<svg width="38" height="38" viewBox="0 0 38 38" fill="none" xmlns="http://www.w3.org/2000/svg">
<path d="M19 0.329102C15.7174 0.329952 12.4925 1.19235 9.64767 2.83011C6.80282 4.46786 4.43764 6.82361 2.78853 9.66189C1.13942 12.5002 0.264139 15.7216 0.25017 19.0042C0.236201 22.2867 1.08403 25.5155 2.70893 28.3677L1.0206 34.277C0.91039 34.6629 0.905354 35.0711 1.00602 35.4595C1.10668 35.8479 1.30938 36.2024 1.59311 36.4861C1.87684 36.7698 2.23127 36.9724 2.61969 37.0731C3.0081 37.1737 3.41636 37.1687 3.80216 37.0584L9.71153 35.3702C12.2064 36.7926 14.9946 37.6229 17.8612 37.7971C20.7278 37.9713 23.5961 37.4848 26.2448 36.375C28.8936 35.2652 31.252 33.5619 33.1383 31.3963C35.0245 29.2308 36.3882 26.6609 37.124 23.8849C37.8599 21.1089 37.9482 18.201 37.3824 15.3855C36.8165 12.5699 35.6114 9.92198 33.8602 7.64587C32.1089 5.36976 29.8582 3.52632 27.2818 2.25773C24.7053 0.989138 21.8719 0.329297 19 0.329102ZM19 36.3291C15.9019 36.3312 12.8606 35.4977 10.1964 33.9165C10.1086 33.8642 10.011 33.8304 9.90959 33.8173C9.80822 33.8041 9.70524 33.8118 9.60697 33.84L3.38999 35.6163C3.26138 35.653 3.12529 35.6547 2.99582 35.6211C2.86635 35.5876 2.74821 35.52 2.65365 35.4254C2.55908 35.3308 2.49153 35.2127 2.45799 35.0832C2.42446 34.9537 2.42616 34.8176 2.46292 34.689L4.23905 28.4722C4.26711 28.374 4.2748 28.271 4.26164 28.1696C4.24848 28.0683 4.21474 27.9707 4.16251 27.8828C2.21956 24.6094 1.41378 20.7853 1.8707 17.0063C2.32761 13.2272 4.02156 9.70537 6.68867 6.98937C9.35577 4.27337 12.8463 2.51572 16.6164 1.99024C20.3866 1.46475 24.2246 2.20094 27.5328 4.0841C30.8409 5.96727 33.4333 8.89168 34.9062 12.4018C36.3791 15.9119 36.6497 19.8105 35.6759 23.4905C34.7021 27.1704 32.5386 30.4249 29.5224 32.7471C26.5062 35.0693 22.8066 36.3287 19 36.3291ZM28.4709 22.5559L24.6347 20.3638C24.2876 20.1657 23.8941 20.0635 23.4945 20.0678C23.0949 20.072 22.7036 20.1825 22.3608 20.3879L19.7721 21.9412C18.2049 21.1472 16.9318 19.8741 16.1379 18.307L17.6911 15.7182C17.8965 15.3754 18.007 14.9842 18.0112 14.5846C18.0155 14.185 17.9133 13.7915 17.7152 13.4444L15.5232 9.60814C15.3442 9.29583 15.086 9.03625 14.7747 8.85558C14.4634 8.67491 14.1099 8.57954 13.7499 8.5791C12.1626 8.57949 10.6401 9.20869 9.51559 10.329C8.3911 11.4493 7.75622 12.9695 7.74991 14.5568C7.747 16.6269 8.15223 18.6774 8.94242 20.5908C9.73262 22.5042 10.8923 24.2431 12.3551 25.708C13.8179 27.1729 15.5551 28.335 17.4674 29.128C19.3797 29.9209 21.4295 30.3291 23.4997 30.3291H23.5222C25.1095 30.3228 26.6297 29.6879 27.75 28.5634C28.8703 27.4389 29.4995 25.9164 29.4999 24.3291C29.4995 23.9691 29.4042 23.6157 29.2235 23.3043C29.0428 22.993 28.7832 22.7348 28.4709 22.5559ZM23.5201 28.8291H23.4998C21.6268 28.8291 19.7721 28.4598 18.0419 27.7424C16.3117 27.0251 14.74 25.9736 13.4165 24.6482C12.093 23.3229 11.0438 21.7496 10.3288 20.0184C9.61388 18.2872 9.24726 16.432 9.24991 14.559C9.25509 13.3689 9.7315 12.2294 10.5749 11.3898C11.4182 10.5502 12.5599 10.0789 13.7499 10.0791C13.8455 10.0792 13.9394 10.1045 14.022 10.1525C14.1047 10.2005 14.1733 10.2694 14.2209 10.3523L16.4129 14.1887C16.4789 14.3044 16.5129 14.4356 16.5115 14.5688C16.5101 14.7019 16.4733 14.8323 16.4048 14.9466L14.6444 17.8807C14.5821 17.9844 14.5459 18.1016 14.5388 18.2224C14.5316 18.3431 14.5538 18.4638 14.6035 18.5741C15.5823 20.7528 17.3263 22.4968 19.505 23.4757C19.6153 23.5253 19.736 23.5475 19.8568 23.5404C19.9776 23.5332 20.0948 23.4969 20.1985 23.4346L23.1324 21.6743C23.2467 21.6058 23.3771 21.5689 23.5103 21.5675C23.6435 21.566 23.7747 21.6 23.8905 21.666L27.7268 23.8583C27.8097 23.9059 27.8786 23.9744 27.9266 24.0571C27.9745 24.1397 27.9998 24.2335 27.9999 24.3291C28.0001 25.5191 27.5288 26.6607 26.6892 27.5041C25.8496 28.3475 24.7101 28.8239 23.5201 28.8291Z" fill="black"/>
</svg>
