<svg width="33" height="33" viewBox="0 0 33 33" fill="none" xmlns="http://www.w3.org/2000/svg">
<path d="M16.1632 4.14795C13.9525 4.14852 11.7806 4.72932 9.86469 5.8323C7.94877 6.93528 6.35589 8.5218 5.24527 10.4333C4.13464 12.3448 3.54517 14.5143 3.53576 16.725C3.52635 18.9357 4.09734 21.1102 5.19166 23.0311L4.05462 27.0108C3.9804 27.2707 3.97701 27.5456 4.0448 27.8072C4.11259 28.0688 4.2491 28.3075 4.44019 28.4986C4.63127 28.6896 4.86997 28.8261 5.13156 28.8939C5.39314 28.9617 5.66809 28.9583 5.92792 28.884L9.90769 27.747C11.5879 28.705 13.4657 29.2642 15.3963 29.3815C17.3268 29.4988 19.2585 29.1712 21.0424 28.4238C22.8262 27.6764 24.4146 26.5292 25.6849 25.0708C26.9552 23.6123 27.8736 21.8816 28.3692 20.0121C28.8647 18.1425 28.9243 16.1841 28.5431 14.288C28.162 12.3918 27.3505 10.6085 26.1711 9.07557C24.9916 7.54268 23.4759 6.30118 21.7407 5.44682C20.0055 4.59246 18.0973 4.14808 16.1632 4.14795ZM16.1632 28.3928C14.0767 28.3943 12.0285 27.833 10.2342 26.768C10.1751 26.7328 10.1094 26.7101 10.0411 26.7012C9.97282 26.6923 9.90346 26.6975 9.83727 26.7165L5.65033 27.9128C5.56372 27.9375 5.47207 27.9386 5.38487 27.916C5.29768 27.8934 5.21811 27.8479 5.15443 27.7842C5.09074 27.7205 5.04525 27.641 5.02266 27.5538C5.00008 27.4666 5.00122 27.3749 5.02598 27.2883L6.22215 23.1015C6.24105 23.0353 6.24622 22.9659 6.23736 22.8977C6.2285 22.8294 6.20578 22.7637 6.1706 22.7045C4.86208 20.5 4.31942 17.9246 4.62713 15.3795C4.93485 12.8344 6.07568 10.4626 7.87189 8.63343C9.6681 6.80429 12.0188 5.62057 14.5579 5.26667C17.097 4.91278 19.6818 5.40857 21.9098 6.67683C24.1377 7.94508 25.8836 9.91459 26.8756 12.2785C27.8675 14.6425 28.0497 17.2681 27.3939 19.7464C26.7381 22.2247 25.281 24.4166 23.2497 25.9805C21.2184 27.5444 18.7268 28.3925 16.1632 28.3928ZM22.5415 19.117L19.958 17.6407C19.7243 17.5073 19.4592 17.4385 19.1901 17.4413C18.921 17.4442 18.6575 17.5186 18.4266 17.657L16.6832 18.7031C15.6277 18.1683 14.7704 17.3109 14.2356 16.2555L15.2817 14.512C15.42 14.2812 15.4944 14.0177 15.4973 13.7486C15.5001 13.4795 15.4313 13.2144 15.2979 12.9807L13.8217 10.3971C13.7011 10.1868 13.5273 10.0119 13.3176 9.89027C13.1079 9.76859 12.8698 9.70437 12.6274 9.70407C11.5584 9.70433 10.533 10.1281 9.77573 10.8826C9.01842 11.6371 8.59085 12.6608 8.5866 13.7298C8.58464 15.124 8.85755 16.505 9.38972 17.7936C9.9219 19.0822 10.7029 20.2533 11.688 21.2399C12.6732 22.2264 13.8431 23.0091 15.131 23.5431C16.4189 24.0771 17.7994 24.352 19.1936 24.352H19.2088C20.2778 24.3478 21.3016 23.9202 22.056 23.1629C22.8105 22.4056 23.2343 21.3802 23.2346 20.3112C23.2343 20.0688 23.1701 19.8307 23.0484 19.6211C22.9267 19.4114 22.7519 19.2375 22.5415 19.117ZM19.2074 23.3418H19.1937C17.9323 23.3418 16.6832 23.0931 15.518 22.61C14.3527 22.1269 13.2942 21.4187 12.4029 20.5261C11.5115 19.6335 10.8049 18.574 10.3234 17.4081C9.84193 16.2422 9.59502 14.9928 9.59681 13.7313C9.6003 12.9299 9.92114 12.1625 10.4891 11.597C11.0571 11.0316 11.826 10.7142 12.6274 10.7143C12.6918 10.7144 12.755 10.7314 12.8107 10.7637C12.8664 10.796 12.9126 10.8424 12.9446 10.8983L14.4209 13.482C14.4653 13.5599 14.4882 13.6482 14.4873 13.7379C14.4863 13.8276 14.4615 13.9154 14.4154 13.9924L13.2298 15.9684C13.1879 16.0382 13.1635 16.1172 13.1587 16.1985C13.1539 16.2798 13.1688 16.3611 13.2023 16.4354C13.8615 17.9027 15.036 19.0772 16.5033 19.7364C16.5776 19.7699 16.6589 19.7848 16.7402 19.78C16.8216 19.7752 16.9005 19.7508 16.9704 19.7088L18.9462 18.5233C19.0232 18.4771 19.111 18.4523 19.2008 18.4514C19.2905 18.4504 19.3788 18.4733 19.4568 18.5177L22.0404 19.9942C22.0963 20.0262 22.1427 20.0723 22.175 20.128C22.2073 20.1837 22.2243 20.2469 22.2244 20.3112C22.2245 21.1127 21.9071 21.8815 21.3416 22.4495C20.7762 23.0175 20.0088 23.3383 19.2074 23.3418Z" fill="white"/>
</svg>
