<svg width="21" height="21" fill="none" xmlns="http://www.w3.org/2000/svg"><defs><clipPath id="a"><path fill="#fff" fill-opacity="0" d="M0 0h21v21H0z"/></clipPath></defs><path d="M0 0h21v21H0z"/><g clip-path="url(#a)"><path d="M11.37 16.62c0 .18.06.35.17.49L9.97 18.7c-.9.9-2.12 1.41-3.4 1.4-1.27 0-2.5-.5-3.4-1.41a4.806 4.806 0 0 1 0-6.8L13.28 1.88c.66-.65 1.55-1.01 2.48-1.01.46 0 .92.1 1.34.27.42.18.81.44 1.13.77.33.32.58.71.76 1.14.17.42.26.88.26 1.34-.01.46-.1.91-.28 1.34-.18.42-.44.81-.76 1.13l-9.24 9.13c-.41.4-.97.63-1.55.63a2.2 2.2 0 0 1-1.54-.65c-.41-.41-.63-.96-.63-1.54 0-.58.23-1.14.64-1.55l7-6.99.61.61-7 7c-.24.25-.37.58-.37.93.01.34.14.67.39.91.24.25.57.39.91.39.35 0 .68-.13.93-.37l9.23-9.12c.5-.49.78-1.16.78-1.86 0-.69-.27-1.36-.76-1.86-.24-.24-.53-.44-.85-.57-.32-.13-.66-.2-1-.2-.7-.01-1.37.27-1.86.76l-10.11 10c-.74.74-1.16 1.74-1.16 2.79 0 1.04.42 2.04 1.16 2.78a3.91 3.91 0 0 0 2.78 1.15c1.04 0 2.05-.41 2.78-1.15l2.02-2.04v.58Zm5.25-4.37h-.87v3.5h-3.5v.87h3.5v3.5h.87v-3.5h3.5v-.87h-3.5v-3.5Z" fill="#000"/></g></svg>