<svg width="35" height="35" fill="none" xmlns="http://www.w3.org/2000/svg"><defs><clipPath id="a"><path fill="#fff" fill-opacity="0" d="M0 0h35v35H0z"/></clipPath></defs><path d="M0 0h35v35H0z"/><g clip-path="url(#a)" fill="#263238"><path d="M32.26 31.71H2.73c-.9 0-1.64-.73-1.64-1.64v-6.56c0-.3.24-.55.55-.55.3 0 .54.25.54.55v6.56c0 .3.25.55.55.55h29.53c.3 0 .55-.25.55-.55v-6.56c0-.3.24-.55.54-.55.31 0 .55.25.55.55v6.56c0 .91-.74 1.64-1.64 1.64ZM23.51 6.56c-.3 0-.55-.25-.55-.55V3.82c0-.3-.24-.54-.54-.54h-9.85c-.3 0-.54.24-.54.54v2.19c0 .3-.25.55-.55.55-.3 0-.55-.25-.55-.55V3.82c0-.9.74-1.64 1.64-1.64h9.85c.9 0 1.64.74 1.64 1.64v2.19c0 .3-.25.55-.55.55Z"/><path d="M30.07 22.96h-2.18a.54.54 0 0 1-.55-.54c0-.3.24-.55.55-.55h2.18c1.51 0 2.74-1.23 2.74-2.73V8.75H3.82c-.3 0-.54-.25-.54-.55 0-.3.24-.55.54-.55h29.53c.31 0 .55.25.55.55v10.94c0 2.11-1.72 3.82-3.83 3.82Zm-22.97 0H4.92c-2.11 0-3.83-1.71-3.83-3.82V8.2c0-.3.24-.55.55-.55.3 0 .54.25.54.55v10.94c0 1.5 1.23 2.73 2.74 2.73H7.1c.31 0 .55.25.55.55 0 .3-.24.54-.55.54Zm14.22 0h-7.65c-.3 0-.55-.24-.55-.54 0-.3.25-.55.55-.55h7.65c.3 0 .55.25.55.55 0 .3-.25.54-.55.54Zm-10.93 2.19c-.91 0-1.64-.73-1.64-1.64v-3.28c0-.3.24-.55.54-.55h2.19c.3 0 .55.25.55.55v3.28c0 .91-.74 1.64-1.64 1.64Zm-.55-4.37v2.73c0 .3.24.55.55.55.3 0 .54-.25.54-.55v-2.73H9.84Z"/><path d="M24.6 25.15c-.9 0-1.64-.73-1.64-1.64v-3.28c0-.3.25-.55.55-.55h2.19c.3 0 .55.25.55.55v3.28c0 .91-.74 1.64-1.65 1.64Zm-.54-4.37v2.73c0 .3.24.55.54.55.31 0 .55-.25.55-.55v-2.73h-1.09Z"/></g></svg>