<svg width="35" height="35" fill="none" xmlns="http://www.w3.org/2000/svg"><defs><clipPath id="a"><path fill="#fff" fill-opacity="0" d="M0 0h35v35H0z"/></clipPath></defs><path d="M0 0h35v35H0z"/><g clip-path="url(#a)" fill="#000"><path d="M12.25 12.95h2.1c.21 0 .34-.15.34-.36v-2.1c0-.21-.13-.35-.34-.35h-2.1c-.21 0-.36.14-.36.35v2.1c0 .21.15.36.36.36Zm.35-2.11H14v1.4h-1.4v-1.4Zm3.85 2.11h2.1c.21 0 .34-.15.34-.36v-2.1c0-.21-.13-.35-.34-.35h-2.1c-.21 0-.35.14-.35.35v2.1c0 .21.14.36.35.36Zm.35-2.11h1.4v1.4h-1.4v-1.4Zm3.84 2.11h2.11c.21 0 .34-.15.34-.36v-2.1c0-.21-.13-.35-.34-.35h-2.11c-.21 0-.35.14-.35.35v2.1c0 .21.14.36.35.36Zm.36-2.11h1.39v1.4H21v-1.4Zm-8.75 5.95h2.1c.21 0 .34-.13.34-.34v-2.1c0-.21-.13-.35-.34-.35h-2.1c-.21 0-.36.14-.36.35v2.1c0 .21.15.34.36.34Zm.35-2.09H14v1.4h-1.4v-1.4Zm3.85 2.09h2.1c.21 0 .34-.13.34-.34v-2.1c0-.21-.13-.35-.34-.35h-2.1c-.21 0-.35.14-.35.35v2.1c0 .21.14.34.35.34Zm.35-2.09h1.4v1.4h-1.4v-1.4Zm3.84 2.09h2.11c.21 0 .34-.13.34-.34v-2.1c0-.21-.13-.35-.34-.35h-2.11c-.21 0-.35.14-.35.35v2.1c0 .21.14.34.35.34ZM21 14.7h1.39v1.4H21v-1.4Zm-8.75 5.95h2.1c.21 0 .34-.14.34-.36V18.2c0-.21-.13-.35-.34-.35h-2.1c-.21 0-.36.14-.36.35v2.09c0 .22.15.36.36.36Zm.35-2.11H14v1.41h-1.4v-1.41Zm3.85 2.11h2.1c.21 0 .34-.14.34-.36V18.2c0-.21-.13-.35-.34-.35h-2.1c-.21 0-.35.14-.35.35v2.09c0 .22.14.36.35.36Zm.35-2.11h1.4v1.41h-1.4v-1.41Zm3.84 2.11h2.11c.21 0 .34-.14.34-.36V18.2c0-.21-.13-.35-.34-.35h-2.11c-.21 0-.35.14-.35.35v2.09c0 .22.14.36.35.36Zm.36-2.11h1.39v1.41H21v-1.41Z"/><path d="M32.89 14.7v-1.05h.36c.21 0 .35-.14.35-.35v-1.4c0-.21-.14-.35-.35-.35h-.5l-1.29-2.28a.37.37 0 0 0-.32-.17h-6.29v-.35h.34c.21 0 .35-.14.35-.35V7c0-.21-.14-.35-.35-.35h-.59l-6.93-4.17a.318.318 0 0 0-.35 0l-6.93 4.17h-.6c-.21 0-.35.14-.35.35v1.4c0 .21.14.35.35.35h.35v.35H3.85a.37.37 0 0 0-.32.17l-1.3 2.28h-.48c-.21 0-.36.14-.36.35v1.4c0 .21.15.35.36.35h.35v16.8h-.35c-.21 0-.36.14-.36.35v1.4c0 .21.15.35.36.35h31.5c.21 0 .35-.14.35-.35v-1.4c0-.21-.14-.35-.35-.35h-.36V14.7Zm-4.2 14.35V27.3h1.41v1.75h-1.41Zm3.5-14v1.75h-1.4v-1.75h1.4ZM30.1 22.4v1.75h-1.41V22.4h1.41Zm-1.41-.7v-1.75h1.41v1.75h-1.41Zm2.1.7h1.4v1.75h-1.4V22.4Zm0-.7v-1.75h1.4v1.75h-1.4Zm0-2.45V17.5h1.4v1.75h-1.4Zm-.69 0h-1.41V17.5h1.41v1.75Zm-1.41 5.6h1.41v1.75h-1.41v-1.75Zm2.1 0h1.4v1.75h-1.4v-1.75Zm-.69-8.05h-1.41v-1.75h1.41v1.75Zm.69 10.5h1.4v1.75h-1.4V27.3Zm2.1-14.35h-8.04v-.7h8.04v.7ZM30.93 9.8l1.02 1.75h-7.1V9.8h6.08ZM17.5 3.22l5.73 3.43H11.75l5.75-3.43Zm-7.36 4.13h14.71v.7H10.14v-.7Zm14 1.4v21.7h-3.5V22.4c0-.21-.14-.35-.35-.35h-5.6c-.21 0-.34.14-.34.35v8.05h-3.5V8.75h13.29Zm-4.2 21.7h-4.9v-7.7h4.9v7.7ZM4.06 9.8h6.08v1.75h-7.1L4.06 9.8ZM2.1 12.25h8.04v.7H2.1v-.7Zm4.19 2.8v1.75h-1.4v-1.75h1.4Zm-3.5 14V27.3h1.4v1.75h-1.4Zm2.1-7.35v-1.75h1.4v1.75h-1.4Zm1.4.7v1.75h-1.4V22.4h1.4Zm-2.1-.7h-1.4v-1.75h1.4v1.75Zm0 .7v1.75h-1.4V22.4h1.4Zm0 2.45v1.75h-1.4v-1.75h1.4Zm.7 0h1.4v1.75h-1.4v-1.75Zm1.4-5.6h-1.4V17.5h1.4v1.75Zm-2.1 0h-1.4V17.5h1.4v1.75Zm.7 8.05h1.4v1.75h-1.4V27.3Zm-.7-10.5h-1.4v-1.75h1.4v1.75Zm-1.4 12.95h3.85c.21 0 .36-.14.36-.35V14.7c0-.21-.15-.35-.36-.35H2.79v-.7h7.35v16.8H2.79v-.7Zm30.1 2.1H2.1v-.7h30.79v.7Zm-8.04-1.4v-16.8h7.34v.7h-3.84c-.21 0-.35.14-.35.35v14.7c0 .21.14.35.35.35h3.84v.7h-7.34Z"/></g></svg>