<svg width="35" height="35" fill="none" xmlns="http://www.w3.org/2000/svg"><defs><clipPath id="a"><path fill="#fff" fill-opacity="0" d="M0 0h35v35H0z"/></clipPath></defs><path d="M0 0h35v35H0z"/><g clip-path="url(#a)"><path d="M2.73 3.67C1.38 3.67.7 2.8.7 1.09.7.87.87.7 1.09.7s.39.17.39.39c0 1.58.6 1.79 1.25 1.79 1.18 0 2.03 1.09 2.03 2.58 0 .22-.17.4-.39.4s-.39-.18-.39-.4c0-.89-.43-1.79-1.25-1.79Zm1.09-2.19c1.43 0 2.34.92 2.34 2.34 0 .22.18.4.4.4.22 0 .39-.18.39-.4C6.95 1.95 5.69.7 3.82.7a.39.39 0 0 0 0 .78Zm7.11 20a.39.39 0 0 0-.39.39v2.19c0 .22.18.39.39.39.22 0 .4-.17.4-.39v-2.19c0-.22-.18-.39-.4-.39Zm23.37 3.88v8.54c0 .22-.18.4-.4.4H2.18a.4.4 0 0 1-.39-.4V6.56c0-.22.18-.4.39-.4h4.38c.22 0 .39.18.39.4v11.32l6.51-4c.12-.08.28-.08.4-.01s.2.2.2.34v3.7l7.07-4.04c.12-.07.27-.07.39 0s.2.2.2.35v3.67l6.51-4.01c.12-.08.27-.08.39-.01.13.07.21.2.21.34v7.27h1.61c.52 0 1.84.1 2.82 1.09.69.69 1.04 1.63 1.04 2.79Zm-5.47-1.7h1.5c.98 0 1.78.79 1.78 1.76v8.09h1.4v-8.15c0-.94-.27-1.69-.8-2.23-.54-.54-1.39-.86-2.27-.86h-1.61v1.39Zm0 .79v9.06h2.49v-8.09c0-.54-.44-.97-.99-.97h-1.5ZM2.58 6.95v6.87h3.58V6.95H2.58Zm3.58 26.56v-18.9H2.58v18.9h3.58Zm.79 0h7.96v-6.17c0-.22.18-.39.4-.39h4.37c.22 0 .4.17.4.39v6.17h7.96V14.92l-6.51 4c-.12.08-.27.08-.4.01a.4.4 0 0 1-.2-.34v-3.7l-7.07 4.04c-.12.07-.27.07-.39 0a.4.4 0 0 1-.2-.34v-3.67l-6.32 3.89v14.7Zm12.34-5.78H15.7v5.78h3.59v-5.78Zm-3.98-3.28c.22 0 .39-.17.39-.39v-2.19c0-.22-.17-.39-.39-.39s-.4.17-.4.39v2.19c0 .22.18.39.4.39Zm4.37 0c.22 0 .4-.17.4-.39v-2.19c0-.22-.18-.39-.4-.39a.39.39 0 0 0-.39.39v2.19c0 .22.18.39.39.39Zm4.38 0c.22 0 .39-.17.39-.39v-2.19c0-.22-.17-.39-.39-.39s-.4.17-.4.39v2.19c0 .22.18.39.4.39Z" fill="#000"/></g></svg>