<svg width="35" height="35" fill="none" xmlns="http://www.w3.org/2000/svg"><defs><clipPath id="a"><path fill="#fff" fill-opacity="0" d="M0 0h35v35H0z"/></clipPath></defs><path d="M0 0h35v35H0z"/><g clip-path="url(#a)" fill="#000"><path d="M35 7.6V3.56L26.07 0h-1.34L15.8 3.56V7.6l2.26-.9v1.76H0v11.29h1.12v10.73H0V35h35v-4.52h-2.26V6.7l2.26.9ZM1.12 9.59h16.94v9.03H1.12V9.59Zm16.94 10.16v10.73H2.25V19.75h15.81Zm2.26 14.12h-1.13v-1.13h-1.13v1.13h-1.13v-1.13H15.8v1.13h-3.39v-1.13h-1.12v1.13h-1.13v-1.13H9.03v1.13H7.9v-1.13H6.77v1.13H5.64v-1.13H4.51v1.13H3.38v-1.13H2.25v1.13H1.12v-2.26h19.2v2.26Zm9.03-1.13v1.13h-7.9v-2.26h7.9v1.13Zm-7.9-11.29v-1.13h7.9v1.13h-7.9Zm6.77 1.13v7.9h-5.64v-7.9h5.64Zm1.13 7.9v-7.9h1.13v-3.39H20.32v3.39h1.13v7.9h-2.26V6.25l5.75-2.3h.91l5.76 2.3v24.23h-2.26Zm4.52 1.13v2.26h-1.13v-1.13h-1.13v1.13h-1.13v-2.26h3.39Zm-7.8-28.79h-1.34l-7.8 3.12V4.33l8.01-3.21h.91l8.02 3.21v1.61l-7.8-3.12Z"/><path d="M24.83 10.72c0-1.24-1.01-2.26-2.25-2.26-1.25 0-2.26 1.02-2.26 2.26v5.08h4.51v-5.08Zm-1.12 3.95h-2.26v-3.95a1.129 1.129 0 1 1 2.26 0v3.95Zm4.51-6.21a2.27 2.27 0 0 0-2.26 2.26v5.08h4.52v-5.08c0-1.24-1.01-2.26-2.26-2.26Zm1.13 6.21h-2.26v-3.95c0-.62.51-1.13 1.13-1.13.62 0 1.13.51 1.13 1.13v3.95ZM9.03 23.7c0-1.24-1.02-2.25-2.26-2.25-1.25 0-2.26 1.01-2.26 2.25v5.09h4.52V23.7ZM7.9 27.66H5.64V23.7c0-.62.51-1.12 1.13-1.12.62 0 1.13.5 1.13 1.12v3.96Zm7.9-3.96a2.256 2.256 0 0 0-4.51 0v5.09h4.51V23.7Zm-1.13 3.96h-2.26V23.7c0-.62.51-1.12 1.13-1.12.63 0 1.13.5 1.13 1.12v3.96Z"/><path d="M20.32 16.93h10.16v1.13H20.32v-1.13Z" fill-rule="evenodd"/></g></svg>