<svg width="41" height="41" fill="none" xmlns="http://www.w3.org/2000/svg"><path d="M20.5 41C9.19 41 0 31.8 0 20.5 0 9.19 9.19 0 20.5 0 31.8 0 41 9.19 41 20.5 41 31.8 31.8 41 20.5 41Zm0-39.3c-10.37 0-18.8 8.43-18.8 18.8 0 10.36 8.43 18.79 18.8 18.79 10.36 0 18.79-8.43 18.79-18.79 0-10.37-8.43-18.8-18.79-18.8Zm-4.94 30.75c-1.61 0-3.12-.61-4.23-1.72l-3.15-3.15 6.23-6.23 3.49 3.49c3.2-1.35 5.48-3.63 6.93-6.95l-3.48-3.48 6.23-6.23 3.15 3.15c1.11 1.11 1.72 2.61 1.72 4.23 0 7.42-9.47 16.89-16.89 16.89Zm-4.96-4.87 1.94 1.94c.79.79 1.86 1.23 3.02 1.23 6.53 0 15.19-8.66 15.19-15.19 0-1.16-.44-2.23-1.23-3.02l-1.94-1.94-3.81 3.81 3.08 3.08-.21.52c-1.68 4.18-4.59 7.09-8.64 8.63l-.52.2-3.07-3.08-3.81 3.82Z" fill="#167EC2"/></svg>