<svg width="37" height="38" fill="none" xmlns="http://www.w3.org/2000/svg"><g clip-path="url(#a)" fill="#000"><path d="M31.581 5.498A18.379 18.379 0 0 0 18.5.079 18.379 18.379 0 0 0 5.419 5.498 18.379 18.379 0 0 0 0 18.579c0 4.942 1.924 9.587 5.419 13.082A18.379 18.379 0 0 0 18.5 37.079c4.942 0 9.587-1.924 13.081-5.418A18.38 18.38 0 0 0 37 18.579c0-4.941-1.924-9.587-5.419-13.081ZM18.5 35.91c-9.557 0-17.332-7.775-17.332-17.332S8.943 1.247 18.5 1.247 35.832 9.022 35.832 18.58 28.057 35.911 18.5 35.911Z"/><path d="M28.978 7.207a.584.584 0 0 0-.62-.052L5.768 18.839a.584.584 0 0 0 .008 1.042l5.908 2.954v5.854a.586.586 0 0 0 .868.527l6.76-3.756 5.174 2.218a.585.585 0 0 0 .818-.416l1.31-6.546a.584.584 0 0 0-1.146-.229l-1.168 5.84-4.79-2.053a.585.585 0 0 0-.515.026l-6.142 3.412v-5.238a.584.584 0 0 0-.323-.523L7.326 19.35l20.49-10.598-1.779 8.89a.584.584 0 1 0 1.146.23l2.016-10.083a.584.584 0 0 0-.221-.58Z"/><path d="M25.19 11.985a.584.584 0 0 0-.765-.135L14.3 18.082a.584.584 0 0 0-.278.497v6.232a.584.584 0 0 0 1.107.261l2.294-4.589 7.723-7.722a.584.584 0 0 0 .045-.776Zm-8.661 7.739a.585.585 0 0 0-.11.152l-1.23 2.46v-3.43l5.61-3.453-4.27 4.271Z"/></g><defs><clipPath id="a"><path fill="#fff" transform="translate(0 .08)" d="M0 0h37v37H0z"/></clipPath></defs></svg>