<svg width="37" height="37" fill="none" xmlns="http://www.w3.org/2000/svg"><defs><clipPath id="a"><path fill="#fff" fill-opacity="0" d="M0 0h37v37H0z"/></clipPath></defs><path d="M0 0h37v37H0z"/><g clip-path="url(#a)" fill="#FFF"><path d="M31.58 5.41C28.08 1.92 23.44 0 18.5 0 13.55 0 8.91 1.92 5.41 5.41 1.92 8.91 0 13.55 0 18.5c0 4.94 1.92 9.58 5.41 13.08C8.91 35.07 13.55 37 18.5 37c4.94 0 9.58-1.93 13.08-5.42C35.07 28.08 37 23.44 37 18.5c0-4.95-1.93-9.59-5.42-13.09ZM18.5 35.83c-9.56 0-17.34-7.78-17.34-17.33 0-9.56 7.78-17.34 17.34-17.34 9.55 0 17.33 7.78 17.33 17.34 0 9.55-7.78 17.33-17.33 17.33Z"/><path d="M28.97 7.12a.602.602 0 0 0-.62-.05L5.76 18.76a.586.586 0 0 0 .01 1.04l5.91 2.95v5.85c0 .16.05.31.16.42.11.12.27.19.42.19.1 0 .2-.03.29-.08l6.76-3.75 5.17 2.21c.11.05.23.07.35.05a.6.6 0 0 0 .47-.46l1.31-6.55a.59.59 0 0 0-.57-.7c-.28 0-.52.2-.58.47l-1.16 5.84-4.8-2.05a.575.575 0 0 0-.51.03l-6.14 3.41v-5.24c0-.22-.13-.42-.33-.52l-5.2-2.6 20.49-10.6-1.78 8.89c-.07.36.21.7.57.7.28 0 .52-.2.58-.47L29.19 7.7a.573.573 0 0 0-.22-.58Z"/><path d="M25.19 11.9a.59.59 0 0 0-.77-.13L14.29 18a.57.57 0 0 0-.27.5v6.23c0 .27.18.5.45.57.04.01.09.01.13.01.22 0 .42-.12.52-.32l2.3-4.59 7.72-7.72c.21-.21.23-.55.05-.78Zm-8.67 7.74c-.04.04-.08.1-.11.15l-1.23 2.46v-3.43l5.62-3.45-4.28 4.27Z"/></g></svg>