<svg width="25" height="26" fill="none" xmlns="http://www.w3.org/2000/svg"><g clip-path="url(#a)" fill="#fff"><path d="M21.35 4.303a12.378 12.378 0 0 0-8.81-3.65 12.377 12.377 0 0 0-8.81 3.65 12.377 12.377 0 0 0-3.648 8.81c0 3.327 1.295 6.456 3.649 8.81a12.378 12.378 0 0 0 8.81 3.649c3.328 0 6.456-1.296 8.81-3.65A12.378 12.378 0 0 0 25 13.112c0-3.327-1.296-6.456-3.65-8.81Zm-8.81 20.482C6.106 24.785.869 19.549.869 13.113.868 6.676 6.105 1.44 12.541 1.44s11.672 5.236 11.672 11.673c0 6.436-5.236 11.672-11.672 11.672Z"/><path d="M19.597 5.454a.393.393 0 0 0-.417-.035L3.967 13.288a.393.393 0 0 0 .004.701l3.98 1.99v3.942a.395.395 0 0 0 .585.355l4.552-2.529 3.485 1.494a.394.394 0 0 0 .551-.28l.881-4.409a.393.393 0 0 0-.771-.154l-.787 3.933-3.226-1.383a.394.394 0 0 0-.347.018l-4.136 2.298v-3.528a.394.394 0 0 0-.218-.352L5.015 13.63l13.8-7.137-1.198 5.987a.393.393 0 1 0 .771.155l1.358-6.79a.393.393 0 0 0-.149-.392Z"/><path d="M17.046 8.672a.393.393 0 0 0-.515-.092l-6.82 4.197a.393.393 0 0 0-.187.335v4.197a.393.393 0 0 0 .746.176l1.545-3.09 5.2-5.201a.394.394 0 0 0 .031-.522Zm-5.833 5.211a.394.394 0 0 0-.073.103l-.829 1.656v-2.31l3.779-2.325-2.877 2.876Z"/></g><defs><clipPath id="a"><path fill="#fff" transform="translate(.082 .653)" d="M0 0h24.918v24.918H0z"/></clipPath></defs></svg>