<svg width="36.515" height="38.037" fill="none" xmlns="http://www.w3.org/2000/svg"><defs><clipPath id="a"><path fill="#fff" fill-opacity="0" d="M0 0h36.515v38.037H0z"/></clipPath></defs><path d="M0 0h36.515v38.037H0z"/><g clip-path="url(#a)"><path d="M32.39 4.61C27.9 6.55 8.64 14.86 3.31 17.13c-3.57 1.45-1.48 2.81-1.48 2.81s3.05 1.09 5.66 1.91c2.61.81 4.01-.09 4.01-.09l12.27-8.62c4.36-3.08 3.31-.55 2.27.54-2.27 2.36-6.01 6.08-9.15 9.07-1.39 1.27-.69 2.36-.08 2.91 2.26 1.99 8.44 6.07 8.79 6.34 1.84 1.36 5.46 3.31 6.01-.81l2.18-14.24c.69-4.81 1.39-9.25 1.48-10.52.26-3.09-2.88-1.82-2.88-1.82Z" fill="#1B92D1"/></g></svg>