<svg width="40" height="40" fill="none" xmlns="http://www.w3.org/2000/svg"><defs><clipPath id="a"><path fill="#fff" fill-opacity="0" d="M0 0h40v40H0z"/></clipPath></defs><path d="M0 0h40v40H0z"/><g clip-path="url(#a)"><path d="M22.95 23.79c3.72.56 4.9 3.49 7.26 5.53h6.04a24.48 24.48 0 0 0-6.59-8.73c2.17-2.98 4.47-5.79 5.59-10.05h-5.48c-2.15 3.26-3.28 7.08-6.82 9.6v-9.6H15l1.89 2.35v8.38c-3.08-.36-5.16-6-7.42-10.73H3.75c2.08 6.39 6.46 20.4 19.2 18.78v-5.53Z" stroke="#FFF" stroke-width="1.764" stroke-linejoin="round"/></g></svg>