<svg width="36.888" height="36.89" fill="none" xmlns="http://www.w3.org/2000/svg"><path d="M18.44 0c-3.23 0-6.4.84-9.2 2.46A18.418 18.418 0 0 0 0 18.37c-.02 3.22.82 6.4 2.41 9.21L.75 33.39c-.11.38-.11.78-.01 1.16a2.235 2.235 0 0 0 1.59 1.59c.38.1.78.09 1.16-.02l5.81-1.66c2.46 1.4 5.2 2.22 8.02 2.39 2.82.17 5.64-.31 8.25-1.4 2.6-1.09 4.92-2.76 6.78-4.89 1.85-2.14 3.19-4.66 3.92-7.39.72-2.73.81-5.59.25-8.36-.56-2.77-1.74-5.38-3.46-7.62a18.558 18.558 0 0 0-6.47-5.3A18.455 18.455 0 0 0 18.44 0Zm0 35.41c-3.05 0-6.04-.82-8.66-2.38a.709.709 0 0 0-.28-.09c-.1-.02-.2-.01-.3.02l-6.12 1.75c-.12.03-.26.03-.38 0a.717.717 0 0 1-.53-.53.737.737 0 0 1 0-.39l1.75-6.11a.726.726 0 0 0-.08-.58c-1.91-3.22-2.7-6.98-2.25-10.7.45-3.72 2.11-7.18 4.74-9.85 2.62-2.68 6.06-4.4 9.76-4.92 3.71-.52 7.49.21 10.74 2.06 3.26 1.85 5.81 4.73 7.26 8.18a17.02 17.02 0 0 1 .75 10.91 16.93 16.93 0 0 1-6.05 9.1 16.952 16.952 0 0 1-10.35 3.53Zm9.32-13.55-3.78-2.16c-.34-.19-.73-.29-1.12-.29-.39.01-.78.11-1.11.32l-2.55 1.52a8.129 8.129 0 0 1-3.58-3.57l1.53-2.55c.2-.33.31-.72.32-1.11 0-.4-.1-.78-.29-1.12l-2.16-3.78c-.18-.3-.43-.56-.74-.74-.3-.18-.65-.27-1.01-.27a5.906 5.906 0 0 0-5.9 5.88c0 2.04.4 4.05 1.18 5.94.77 1.88 1.91 3.59 3.35 5.03 1.44 1.44 3.15 2.58 5.03 3.36 1.88.78 3.9 1.19 5.94 1.19h.02c1.56-.01 3.05-.64 4.16-1.74a5.93 5.93 0 0 0 1.72-4.17c0-.35-.1-.7-.27-1-.18-.31-.44-.56-.74-.74Zm-4.87 6.17h-.02c-1.85 0-3.67-.36-5.37-1.07-1.71-.7-3.25-1.74-4.55-3.04a13.862 13.862 0 0 1-3.04-4.56c-.7-1.7-1.06-3.52-1.06-5.37 0-1.17.47-2.29 1.3-3.11.83-.83 1.95-1.29 3.12-1.29.1 0 .19.02.27.07.08.05.15.11.2.19l2.15 3.78c.07.11.1.24.1.37s-.04.26-.1.37l-1.74 2.89a.79.79 0 0 0-.1.34c-.01.11.02.23.06.34a9.575 9.575 0 0 0 4.83 4.82c.1.05.22.07.34.07.12-.01.24-.05.34-.11l2.88-1.73c.12-.07.24-.1.38-.1.13 0 .26.03.37.09l3.77 2.16c.08.05.15.11.2.2.05.08.07.17.07.26 0 1.17-.46 2.3-1.29 3.13-.82.83-1.94 1.29-3.11 1.3Z" fill="#26CE37"/></svg>