<svg width="48" height="48" fill="none" xmlns="http://www.w3.org/2000/svg"><defs><clipPath id="a"><path fill="#fff" fill-opacity="0" d="M0 0h48v48H0z"/></clipPath></defs><path d="M0 0h48v48H0z"/><g clip-path="url(#a)"><path d="M24 5.25c-3.29 0-6.51.86-9.36 2.5a18.724 18.724 0 0 0-6.86 6.83 18.803 18.803 0 0 0-2.53 9.34c-.02 3.28.83 6.51 2.45 9.36l-1.68 5.91c-.11.39-.12.8-.02 1.19.1.38.31.74.59 1.02.28.29.64.49 1.03.59.38.1.79.09 1.18-.02l5.91-1.68c2.49 1.42 5.28 2.25 8.15 2.42 2.86.18 5.73-.31 8.38-1.42 2.65-1.11 5.01-2.81 6.89-4.98 1.89-2.16 3.25-4.73 3.99-7.51.74-2.78.82-5.68.26-8.5-.57-2.81-1.77-5.46-3.52-7.74a18.981 18.981 0 0 0-6.58-5.39A18.868 18.868 0 0 0 24 5.25Zm0 36c-3.1 0-6.14-.84-8.81-2.42a.938.938 0 0 0-.28-.1.8.8 0 0 0-.31.03l-6.21 1.77c-.13.04-.27.04-.4.01a.734.734 0 0 1-.34-.2.734.734 0 0 1-.2-.34.776.776 0 0 1 .01-.4l1.77-6.21c.03-.1.04-.2.03-.3a.905.905 0 0 0-.1-.29c-1.94-3.27-2.75-7.1-2.29-10.88.45-3.78 2.15-7.3 4.81-10.01 2.67-2.72 6.16-4.48 9.93-5 3.77-.53 7.61.21 10.92 2.09 3.31 1.88 5.9 4.81 7.37 8.32 1.47 3.51 1.75 7.41.77 11.09-.97 3.68-3.14 6.93-6.15 9.25A17.286 17.286 0 0 1 24 41.25Zm9.47-13.78-3.84-2.19c-.35-.2-.74-.3-1.14-.3-.4.01-.79.12-1.13.32l-2.59 1.56a8.316 8.316 0 0 1-3.64-3.64l1.56-2.59c.2-.34.31-.73.32-1.13 0-.4-.1-.79-.3-1.14l-2.19-3.84c-.18-.31-.44-.57-.75-.75-.31-.18-.66-.27-1.02-.27-1.59 0-3.11.62-4.24 1.74a6.023 6.023 0 0 0-1.76 4.23c-.01 2.07.4 4.12 1.19 6.04.79 1.91 1.95 3.65 3.41 5.11 1.46 1.47 3.2 2.63 5.11 3.42 1.92.8 3.97 1.21 6.04 1.21h.02c1.58-.01 3.11-.65 4.23-1.77a6.014 6.014 0 0 0 1.75-4.23 2.068 2.068 0 0 0-1.03-1.78Zm-4.95 6.28h-.02c-1.88 0-3.73-.37-5.46-1.09-1.73-.72-3.3-1.77-4.63-3.1a14.17 14.17 0 0 1-4.16-10.09c0-1.19.48-2.32 1.32-3.16.84-.84 1.99-1.32 3.18-1.31.09 0 .18.02.27.07.08.05.15.12.2.2l2.19 3.83c.06.12.1.25.1.38 0 .14-.04.27-.11.38l-1.76 2.94c-.06.1-.1.22-.11.34 0 .12.02.24.07.35a9.75 9.75 0 0 0 4.9 4.9c.11.05.23.07.35.07.12-.01.24-.05.34-.11l2.94-1.76c.11-.07.24-.11.38-.11.13 0 .26.04.38.1l3.83 2.19a.566.566 0 0 1 .28.48c0 1.19-.48 2.33-1.32 3.17a4.5 4.5 0 0 1-3.16 1.33Z" fill="#FFF"/></g></svg>