<svg width="26" height="26" fill="none" xmlns="http://www.w3.org/2000/svg"><path d="M13.163.148A12.63 12.63 0 0 0 2.192 19.03l-1.137 3.98a1.515 1.515 0 0 0 1.873 1.873l3.98-1.137A12.627 12.627 0 0 0 23.17 5.076 12.63 12.63 0 0 0 13.163.148Zm0 24.245a11.6 11.6 0 0 1-5.929-1.625.505.505 0 0 0-.397-.052L2.65 23.913a.506.506 0 0 1-.624-.625l1.196-4.186a.505.505 0 0 0-.051-.398 11.619 11.619 0 1 1 9.992 5.689Zm6.378-9.276-2.583-1.476a1.517 1.517 0 0 0-1.531.016l-1.744 1.046a5.562 5.562 0 0 1-2.447-2.447l1.046-1.744a1.517 1.517 0 0 0 .016-1.531l-1.476-2.584a1.379 1.379 0 0 0-1.195-.693 4.042 4.042 0 0 0-4.04 4.026 10.607 10.607 0 0 0 10.607 10.622h.015a4.041 4.041 0 0 0 4.026-4.04 1.378 1.378 0 0 0-.694-1.195Zm-3.334 4.225h-.013a9.598 9.598 0 0 1-9.597-9.61 3.03 3.03 0 0 1 3.03-3.018.366.366 0 0 1 .318.184l1.476 2.584a.507.507 0 0 1-.006.51l-1.185 1.976a.505.505 0 0 0-.028.467 6.57 6.57 0 0 0 3.301 3.301.504.504 0 0 0 .467-.027l1.976-1.186a.504.504 0 0 1 .51-.005l2.584 1.476a.365.365 0 0 1 .184.317 3.03 3.03 0 0 1-3.017 3.03Z" fill="#fff"/></svg>