<svg width="38" height="38" fill="none" xmlns="http://www.w3.org/2000/svg"><path d="M19 .33A18.755 18.755 0 0 0 2.709 28.367l-1.689 5.91a2.25 2.25 0 0 0 2.781 2.781l5.91-1.688A18.75 18.75 0 1 0 19 .33Zm0 36a17.226 17.226 0 0 1-8.804-2.413.748.748 0 0 0-.589-.077L3.39 35.616a.75.75 0 0 1-.927-.927l1.776-6.217a.75.75 0 0 0-.076-.59A17.252 17.252 0 1 1 19 36.33Zm9.47-13.774-3.835-2.192a2.251 2.251 0 0 0-2.274.024l-2.589 1.553a8.257 8.257 0 0 1-3.634-3.634l1.553-2.589a2.251 2.251 0 0 0 .024-2.274l-2.192-3.836A2.047 2.047 0 0 0 13.75 8.58a6.002 6.002 0 0 0-6 5.978A15.75 15.75 0 0 0 23.5 30.329h.022a6.002 6.002 0 0 0 5.978-6 2.046 2.046 0 0 0-1.03-1.773Zm-4.95 6.273h-.02A14.25 14.25 0 0 1 9.25 14.56a4.5 4.5 0 0 1 4.5-4.48.543.543 0 0 1 .47.273l2.193 3.837a.751.751 0 0 1-.008.758l-1.76 2.934a.749.749 0 0 0-.041.693 9.757 9.757 0 0 0 4.901 4.902.75.75 0 0 0 .694-.041l2.933-1.76a.75.75 0 0 1 .758-.009l3.837 2.192a.544.544 0 0 1 .273.471 4.5 4.5 0 0 1-4.48 4.5Z" fill="#000"/></svg>