<svg width="35" height="35" fill="none" xmlns="http://www.w3.org/2000/svg"><defs><clipPath id="a"><path fill="#fff" fill-opacity="0" d="M0 0h35v35H0z"/></clipPath></defs><path d="M0 0h35v35H0z"/><g clip-path="url(#a)"><path d="M34.93 26.65a.552.552 0 0 0-.49-.29H20.81v-4.55h11.75c.21 0 .39-.11.49-.29a.58.58 0 0 0-.03-.57L20.81 3.15v-.72a.555.555 0 0 0-1.11 0v3.72l-7.68 13.9c-.1.17-.1.38 0 .55.1.17.28.27.48.27h5.92c.31 0 .55-.25.55-.55 0-.3-.24-.55-.55-.55h-4.99L19.7 8.43v17.93h-1.12v-.27c0-1.93-1.57-3.5-3.5-3.5h-4.57V9.83c0-.3-.24-.55-.55-.55-.3 0-.55.25-.55.55v.16L1.97 20.95a.58.58 0 0 0-.03.57c.1.18.29.29.49.29h5.65c.3 0 .55-.24.55-.55 0-.3-.25-.55-.55-.55H3.47l5.94-8.75v10.63H8.08c-.31 0-.55.25-.55.55v1.34H4.31c-.3 0-.55.24-.55.55v1.33H.55c-.18 0-.35.08-.45.23-.1.14-.13.33-.08.5l1.89 5.64c.07.23.28.38.52.38h28.25c.18 0 .35-.09.46-.24l3.76-5.65c.12-.17.13-.39.03-.57Zm-3.42-5.94h-10.7V5.1l10.7 15.61Zm-1.13 11.3H2.83l-1.52-4.55h14.5c.31 0 .55-.24.55-.55 0-.3-.24-.55-.55-.55H4.86v-.78h3.22c.3 0 .55-.25.55-.55V23.7h6.45c.7 0 1.33.3 1.77.78h-6.42c-.3 0-.55.24-.55.55 0 .3.25.55.55.55h6.99c.03.16.05.33.05.51v.82c0 .31.25.55.55.55.04 0 .07 0 .1-.01.02.01.06.01.09.01h15.2l-3.03 4.55Z" fill="#000"/></g></svg>