<svg width="40" height="40" fill="none" xmlns="http://www.w3.org/2000/svg"><defs><clipPath id="a"><path fill="#fff" fill-opacity="0" d="M0 0h40v40H0z"/></clipPath></defs><path d="M0 0h40v40H0z"/><g clip-path="url(#a)" stroke="#FFF" stroke-width="1.792" stroke-linejoin="round"><path d="M34.84 10.12c-.51-.51-1.16-.88-1.86-1.07-1.93-.75-20.61-1.11-26.03.02-.71.19-1.35.56-1.87 1.08-.51.51-.89 1.16-1.08 1.86-.87 3.82-.93 12.08.02 15.98.19.71.57 1.35 1.08 1.87.52.52 1.16.89 1.87 1.08 3.82.88 21.98 1 26.03 0 .71-.19 1.35-.56 1.87-1.08.51-.52.88-1.16 1.07-1.87.93-4.16 1-11.9-.02-16-.19-.71-.56-1.35-1.08-1.87Z"/><path d="M16.76 15v9.98l8.71-4.99L16.76 15Z"/></g></svg>